HIERARCHY
ROOT Spine
{
    OFFSET 0.0 0.0 -0.0
    CHANNELS 6 Xposition Yposition Zposition Zrotation Xrotation Yrotation
    JOINT ShoulderCenter
    {
        OFFSET 0.0 27.76237678527832 0.0
        CHANNELS 3 Zrotation Xrotation Yrotation
        JOINT LeftShoulder
        {
            OFFSET 20.745866775512695 0.0 0.0
            CHANNELS 3 Zrotation Xrotation Yrotation
            JOINT LeftElbow
            {
                OFFSET 25.892244338989258 0.0 0.0
                CHANNELS 3 Zrotation Xrotation Yrotation
                JOINT LeftHand
                {
                    OFFSET 34.040382385253906 0.0 0.0
                    CHANNELS 3 Zrotation Xrotation Yrotation
                    End Site
                    {
                        OFFSET 13.616153717041016 0.0 0.0
                    }
                }
            }
        }
        JOINT RightShoulder
        {
            OFFSET -20.745866775512695 0.0 0.0
            CHANNELS 3 Zrotation Xrotation Yrotation
            JOINT RightElbow
            {
                OFFSET -25.892244338989258 0.0 0.0
                CHANNELS 3 Zrotation Xrotation Yrotation
                JOINT RightHand
                {
                    OFFSET -34.040382385253906 0.0 0.0
                    CHANNELS 3 Zrotation Xrotation Yrotation
                    End Site
                    {
                        OFFSET -13.616153717041016 0.0 0.0
                    }
                }
            }
        }
        End Site
        {
            OFFSET 0.0 11.104948997497559 0.0
        }
    }
    JOINT LeftHip
    {
        OFFSET 20.662599704048407 -20.662599704048407 0.0
        CHANNELS 3 Zrotation Xrotation Yrotation
        JOINT LeftKnee
        {
            OFFSET 0.0 -56.94123840332031 0.0
            CHANNELS 3 Zrotation Xrotation Yrotation
            JOINT LeftFoot
            {
                OFFSET 0.0 -45.874183654785156 0.0
                CHANNELS 3 Zrotation Xrotation Yrotation
                End Site
                {
                    OFFSET 0.0 0.0 18.349674224853516
                }
            }
        }
    }
    JOINT RightHip
    {
        OFFSET -20.662599704048407 -20.662599704048407 0.0
        CHANNELS 3 Zrotation Xrotation Yrotation
        JOINT RightKnee
        {
            OFFSET 0.0 -56.94123840332031 0.0
            CHANNELS 3 Zrotation Xrotation Yrotation
            JOINT RightFoot
            {
                OFFSET 0.0 -45.874183654785156 0.0
                CHANNELS 3 Zrotation Xrotation Yrotation
                End Site
                {
                    OFFSET 0.0 0.0 18.349674224853516
                }
            }
        }
    }
}
MOTION
Frames: 9
Frame Time: 0.03333333333333333
-14.632399559020996 25.29599952697754 -268.67449951171875 -6.252628858370331 45.086571731542996 -172.13293450251095 -2.818161275087296e-07 -3.0229950248776805e-07 -1.2210561784740426 -71.10056977222045 -19.670159901654937 13.874577320576597 1.0410353873886744e-06 2.4264728031825785e-06 72.21427879738472 1.5902773407317584e-15 3.975693351829396e-16 7.951386703658792e-16 50.32121641814654 -11.02655067143104 -42.621818470309606 -3.2480556445250765e-06 2.7122061151192977e-06 -97.48840076437182 -3.1805546814635164e-15 -7.95138670365879e-15 -2.2069531490250793e-31 3.6220091282145903 46.671795832731995 42.41860160202166 -1.1629864079409744 6.1916292318990545 -10.055029594285706 -2.5345477570834893e-32 7.951386703658792e-16 3.652668266993257e-15 3.0451066625002006 44.52040100266924 -33.275572942289514 -7.867692841904977 1.7741507919231463 2.6051803272505567 -8.945310041616142e-16 -3.975693351829396e-16 -1.714517757976427e-15
-16.083900451660156 27.590599060058594 -268.135498046875 -8.246726653197706 45.218945506836974 -168.78899572428764 1.7221367270784527e-07 2.998860698121889e-06 -2.9366763639075764 -73.64512923386239 -18.02056158997192 8.589126257469406 -5.80394204496754e-06 4.938012207192445e-06 78.96129472285331 1.5902773407317588e-15 7.951386703658794e-16 -1.1034765745125397e-32 50.453464674461905 -12.2273311905352 -35.83991902966271 9.839183359452269e-07 -1.4815685533233109e-06 -98.92424614745022 6.361109362927035e-15 -3.531125038440127e-31 -6.361109362927035e-15 1.3374321942610041 44.25479730474001 45.14399032319414 1.8499429260848175 7.179529282658039 -11.443921546335385 -3.975693351829397e-16 -2.1466067738564247e-32 6.187172778784499e-15 3.3263334602894976 45.327951677491185 -31.776171425149276 -10.323596577261728 1.0240306669455472 1.7116140208560893 -9.93923337957349e-17 -6.681205822243892e-34 7.702905869169454e-16
-17.329601287841797 26.995500564575195 -268.3572998046875 -10.440945401457615 45.459160490835046 -165.4142726316116 2.0049969230009543e-07 1.960214120020224e-06 -3.3433841824593635 -72.05376613970166 -19.215661724451728 11.587216714792936 -1.4812487514769215e-06 4.635624312120609e-06 78.28573313428971 -9.54166404439055e-15 1.6552148617688094e-31 -1.987846675914698e-15 49.43320468178262 -13.884767421727986 -36.653353036044884 2.7844925644931865e-06 2.6661062314087673e-07 -87.69007039094957 -1.1034765745125397e-31 7.95138670365879e-15 1.5902773407317582e-15 -0.5498458135181812 44.027089233779165 40.9211338672745 2.1333609358859302 7.839449182557228 -11.555940859893136 7.951386703658792e-16 7.951386703658792e-16 1.26725225589562e-15 1.6516959207500173 48.64211060775935 -31.574840914342587 -8.488835062876843 -0.15167671790005136 -0.26222699515143416 8.945310041616142e-16 7.951386703658794e-16 -2.4848083448933734e-15
-18.575300216674805 26.40039825439453 -268.5791015625 -12.652258180475297 45.65714755437807 -161.96778807761856 -2.3239543388874637e-07 -3.4367055707737694e-06 -3.8168674720242555 -70.13256536982979 -20.351461726338005 14.615141749728961 5.404547952841915e-06 -2.8264900538175598e-06 77.9577042929482 2.1866313435061676e-15 6.162324695335563e-15 -2.9817700138720468e-15 48.6625726410393 -15.137707064390044 -37.417390054101624 6.743872095514095e-06 -6.885514058985454e-06 -76.41530666272229 -4.770832022195274e-15 1.5902773407317584e-15 -3.1805546814635164e-15 -2.4129774962538795 43.932821238858864 37.086691107060744 2.406656257384706 8.531704703232197 -11.619436268425456 -3.975693351829396e-16 7.931237879308878e-33 -2.2860236773019026e-15 0.23283292884847312 52.0775347275078 -31.323623306574206 -6.724582889443327 -1.3899084918369287 -2.488005343117713 -1.987846675914698e-16 -1.7241821476758432e-33 9.93923337957349e-16
-18.697099685668945 24.366100311279297 -268.8643798828125 -11.688490711450472 44.43675342907194 -161.15982021515458 6.876315762387924e-07 3.01000285960876e-06 -4.543615614190621 -64.45856524007449 -16.84980004783999 16.42426031153864 -1.0186455960670925e-06 3.0098711790287033e-06 89.15579894253804 -1.5902773407317584e-15 7.156248033292914e-15 -5.565970692561156e-15 46.780716541659245 -23.096652964384614 -36.80406134675426 -3.309707792502412e-06 2.8217956668335435e-06 -65.44896754401161 -8.74652537402467e-15 -6.7586786981099735e-15 5.168401357378214e-15 -2.1601777915681963 43.01210049080613 32.31560587412889 0.8201069388049207 7.4403162152497675 -8.786715447705362 1.1927080055488188e-15 -7.951386703658792e-16 -2.5842006786891076e-15 0.11448674612381604 53.05687247755426 -32.589378303501825 -3.9051652488697997 -3.868015886615896 -7.105815968839058 6.957463365701443e-16 3.975693351829396e-16 -9.690752545084152e-16
-18.818899154663086 22.331899642944336 -269.14971923828125 -10.764667720799459 43.20885440076226 -160.3492946563582 4.89532670618458e-07 -6.384599714350999e-08 -5.238718220588405 -59.77212727825703 -11.047407846600697 17.845483213932173 2.967604500935307e-06 3.8610164092754844e-06 99.4490193043891 -1.5902773407317592e-15 -6.361109362927035e-15 -6.361109362927035e-15 44.309745663230856 -31.79317929934814 -37.08890616224423 5.556264238514045e-07 1.5672086326720474e-06 -53.69615166401926 9.144094709207609e-15 6.361109362927033e-15 -2.3854160110976376e-15 -2.006823419215116 42.1012553699747 28.13210224473539 -0.5399590691071988 6.180013283815186 -6.377118475951501 -7.951386703658792e-16 1.4827966470012253e-32 -2.1369351766083005e-15 -0.04928781757542317 54.06597968791266 -34.176987422958696 -0.9687011365870037 -6.300957144367021 -11.85085898402576 -5.466578358765419e-16 -9.939233379573489e-17 1.143011838650951e-15
-18.022600173950195 23.099201202392578 -268.87548828125 -7.5523794372018624 43.934213656521706 -165.55539796679463 6.7039324209518e-07 3.998977981623463e-06 -3.8971060230997554 -54.02042064140739 -10.381875223643593 28.469209642012675 -3.431600522881228e-07 -3.0540967351350296e-06 103.55476796721562 3.1805546814635168e-15 -6.3611093629270335e-15 -1.5902773407317582e-15 55.98125924108051 -26.42101043344637 -25.686317192108742 -1.9012001202844863e-06 2.2157839979216547e-06 -57.34161863504768 1.987846675914698e-16 -3.975693351829396e-16 1.987846675914698e-15 -1.0945989278912336 41.1016897166174 32.833833793639535 0.5022173695216512 7.444514451394634 -8.24113600547553 -7.951386703658792e-16 7.931237879308878e-33 -1.1430118386509513e-15 0.8170138083886119 51.901688803826836 -36.85792102863625 -1.0438616407614123 -4.958704034037654 -8.64744227251731 -7.951386703658791e-16 -1.9878466759146977e-16 6.21202086223343e-16
-17.226200103759766 23.866500854492188 -268.6011962890625 -4.26532158038085 44.56724173414185 -170.83030053363 -1.0723442714950578e-07 -2.8587847508035543e-06 -2.556083347419217 -49.43073871215765 -8.237415661677408 39.106102092861136 -2.305140887733228e-06 3.969701315903775e-06 107.11009618232164 3.1805546814635176e-15 0.0 0.0 64.92251217241214 -20.127565111411094 -15.946027063994993 1.6639744459164558e-06 1.1677556977265819e-06 -62.03476479386521 -3.801756767686859e-15 3.1805546814635164e-15 4.2738703532166e-15 -0.05000862410753959 40.33238278190926 37.54234562502025 1.6291477133602899 8.648566569102186 -10.274891809980547 0.0 0.0 2.981770013872047e-16 2.031206170423085 50.00857993368709 -38.61491022802246 -1.4557455366878447 -3.679362076526206 -5.971369003753735 3.975693351829396e-16 -1.987846675914698e-16 -2.640108866449208e-15
-16.42660140991211 25.58409881591797 -268.3079833984375 -3.6821285816267655 45.322186446761265 -171.5441576226877 -1.0411951548942307e-08 -9.539393005386244e-07 -2.2243583481222635 -51.6212546080752 -7.89405392419403 36.3094429526693 -8.151381780861936e-06 -7.381826752522719e-08 112.29263013895401 0.0 6.3611093629270335e-15 0.0 65.14536244109568 -21.021501237277857 -15.12923031160391 3.815341234996015e-06 8.00824600302199e-06 -66.3733716622107 3.0811623476677818e-15 -7.482950520913159e-32 -2.782985346280577e-15 0.7575063549501104 40.63646355231321 37.68559629518384 2.013363925127695 9.385870377058213 -11.089138669434753 -1.987846675914698e-16 1.5560743882774484e-32 -8.970158125065074e-15 3.0871262151347696 48.810117072607 -42.518371918265274 -3.379446554100379 -1.6518435943185783 -2.801023626335125 0.0 0.0 -1.987846675914698e-16
